# xmcd
#
# Track frame offsets: 
#        150
#        11338
#        24163
#        34698
#        45045
#        56584
#        68004
#        80686
#        89603
#        100828
#        113052
#        123148
#
# Disc length: 1781 seconds
#
# Revision: 0
# Processed by: cddbd v1.5.2PL0 Copyright (c) Steve Scherf et al.
# Submitted via: ExactAudioCopy v1.0b1
#
DISCID=8206f30c
DTITLE=Jake Hooker - One Man World
DYEAR=2011
DGENRE=Swing
TTITLE0=One Man World
TTITLE1=Don't That Beat All
TTITLE2=Get Some Loving Done
TTITLE3=Born To Love You
TTITLE4=Look Who's Foolin'
TTITLE5=I Wish I Felt This Way At Home
TTITLE6=Warm Red Wine (You're My Sunshine)
TTITLE7=My Love
TTITLE8=That's Where My Baby Feels At Home
TTITLE9=The Ledge
TTITLE10=Welcome To My Lonely World
TTITLE11=What's Fort Worth
EXTD=
EXTT0=Buck Owens, Willard Price
EXTT1=Jake Hooker
EXTT2=Jimmy Peppers
EXTT3=Cindy Walker
EXTT4=Jake Hooker
EXTT5=Harlan Howard
EXTT6=Dallas Frazier, Whitey Shafer
EXTT7=Marty Robbins
EXTT8=Curtis Wayne, Wayn Kemp, Faron Young
EXTT9=Jake Hooker
EXTT10=Jack Hooker
EXTT11=Larry Lee
PLAYORDER=
